<?xml version="1.0" encoding="UTF-8" standalone="no"?>
<!-- Created with Inkscape (http://www.inkscape.org/) -->

<svg
   xmlns:dc="http://purl.org/dc/elements/1.1/"
   xmlns:cc="http://creativecommons.org/ns#"
   xmlns:rdf="http://www.w3.org/1999/02/22-rdf-syntax-ns#"
   xmlns:svg="http://www.w3.org/2000/svg"
   xmlns="http://www.w3.org/2000/svg"
   xmlns:sodipodi="http://sodipodi.sourceforge.net/DTD/sodipodi-0.dtd"
   xmlns:inkscape="http://www.inkscape.org/namespaces/inkscape"
   width="1280"
   height="720"
   viewBox="0 0 1280 720.00001"
   id="svg2"
   version="1.1"
   inkscape:version="0.91 r13725"
   enable-background="new"
   sodipodi:docname="ananda_logo.svg"
   inkscape:export-filename="C:\Users\Enrique\Desktop\bitmap2.png"
   inkscape:export-xdpi="90"
   inkscape:export-ydpi="90">
  <defs
     id="defs4" />
  <sodipodi:namedview
     id="base"
     pagecolor="#ffffff"
     bordercolor="#666666"
     borderopacity="1.0"
     inkscape:pageopacity="0.0"
     inkscape:pageshadow="2"
     inkscape:zoom="1"
     inkscape:cx="318.5"
     inkscape:cy="381"
     inkscape:document-units="px"
     inkscape:current-layer="layer2"
     showgrid="false"
     units="px"
     inkscape:window-width="1920"
     inkscape:window-height="1028"
     inkscape:window-x="-8"
     inkscape:window-y="-8"
     inkscape:window-maximized="1"
     inkscape:snap-global="false" />
  <metadata
     id="metadata7">
    <rdf:RDF>
      <cc:Work
         rdf:about="">
        <dc:format>image/svg+xml</dc:format>
        <dc:type
           rdf:resource="http://purl.org/dc/dcmitype/StillImage" />
        <dc:title />
      </cc:Work>
    </rdf:RDF>
  </metadata>
  <g
     inkscape:groupmode="layer"
     id="layer2"
     inkscape:label="circle"
     style="display:inline;opacity:1">
    <g
       id="g5457"
       style="fill:#3cb046;fill-opacity:1">
      <path
         id="path5455"
         d="m 188.38867,222.97461 c -62.44548,0 -113.132811,50.68733 -113.132811,113.13281 0,10.3816 1.408209,20.43563 4.03125,29.98828 l 5.941407,-0.97851 c -2.58572,-9.22526 -3.972657,-18.95442 -3.972657,-29.00977 0,-59.20283 47.929981,-107.13281 107.132811,-107.13281 9.57993,0 19.10813,1.30115 28.33985,3.83398 l 3.47265,-5.25976 c -10.33264,-3.02789 -21.04374,-4.57422 -31.8125,-4.57422 z"
         style="color:#000000;font-style:normal;font-variant:normal;font-weight:normal;font-stretch:normal;font-size:medium;line-height:normal;font-family:sans-serif;text-indent:0;text-align:start;text-decoration:none;text-decoration-line:none;text-decoration-style:solid;text-decoration-color:#000000;letter-spacing:normal;word-spacing:normal;text-transform:none;direction:ltr;block-progression:tb;writing-mode:lr-tb;baseline-shift:baseline;text-anchor:start;white-space:normal;clip-rule:nonzero;display:inline;overflow:visible;visibility:visible;opacity:1;isolation:auto;mix-blend-mode:normal;color-interpolation:sRGB;color-interpolation-filters:linearRGB;solid-color:#000000;solid-opacity:1;fill:#3cb046;fill-opacity:1;fill-rule:nonzero;stroke:none;stroke-width:6;stroke-linecap:butt;stroke-linejoin:miter;stroke-miterlimit:4;stroke-dasharray:none;stroke-dashoffset:0;stroke-opacity:1;color-rendering:auto;image-rendering:auto;shape-rendering:auto;text-rendering:auto;enable-background:accumulate"
         inkscape:connector-curvature="0" />
      <path
         id="path5451"
         d="m 291.11914,288.72461 -5.44726,2.51172 c 6.48883,14.06855 9.84765,29.37822 9.84765,44.87109 0,13.8226 -2.61422,27.02939 -7.37305,39.15625 l 3.35743,7.17969 c 5.97018,-13.28605 9.4576,-27.92921 9.86328,-43.33594 l 0.15234,0 0,-3 c 0,-16.36044 -3.54818,-32.52645 -10.40039,-47.38281 z"
         style="color:#000000;font-style:normal;font-variant:normal;font-weight:normal;font-stretch:normal;font-size:medium;line-height:normal;font-family:sans-serif;text-indent:0;text-align:start;text-decoration:none;text-decoration-line:none;text-decoration-style:solid;text-decoration-color:#000000;letter-spacing:normal;word-spacing:normal;text-transform:none;direction:ltr;block-progression:tb;writing-mode:lr-tb;baseline-shift:baseline;text-anchor:start;white-space:normal;clip-rule:nonzero;display:inline;overflow:visible;visibility:visible;opacity:1;isolation:auto;mix-blend-mode:normal;color-interpolation:sRGB;color-interpolation-filters:linearRGB;solid-color:#000000;solid-opacity:1;fill:#3cb046;fill-opacity:1;fill-rule:nonzero;stroke:none;stroke-width:6;stroke-linecap:butt;stroke-linejoin:miter;stroke-miterlimit:4;stroke-dasharray:none;stroke-dashoffset:0;stroke-opacity:1;color-rendering:auto;image-rendering:auto;shape-rendering:auto;text-rendering:auto;enable-background:accumulate"
         inkscape:connector-curvature="0" />
      <path
         id="path5384"
         d="m 104.16992,402.35742 -6.775389,0.94531 c 14.254209,19.2635 34.475629,33.84473 57.923829,41.01172 l -6.62695,-8.66601 c -17.6347,-7.03227 -32.95911,-18.60909 -44.52149,-33.29102 z"
         style="color:#000000;font-style:normal;font-variant:normal;font-weight:normal;font-stretch:normal;font-size:medium;line-height:normal;font-family:sans-serif;text-indent:0;text-align:start;text-decoration:none;text-decoration-line:none;text-decoration-style:solid;text-decoration-color:#000000;letter-spacing:normal;word-spacing:normal;text-transform:none;direction:ltr;block-progression:tb;writing-mode:lr-tb;baseline-shift:baseline;text-anchor:start;white-space:normal;clip-rule:nonzero;display:inline;overflow:visible;visibility:visible;opacity:1;isolation:auto;mix-blend-mode:normal;color-interpolation:sRGB;color-interpolation-filters:linearRGB;solid-color:#000000;solid-opacity:1;fill:#3cb046;fill-opacity:1;fill-rule:nonzero;stroke:none;stroke-width:6;stroke-linecap:butt;stroke-linejoin:miter;stroke-miterlimit:4;stroke-dasharray:none;stroke-dashoffset:0;stroke-opacity:1;color-rendering:auto;image-rendering:auto;shape-rendering:auto;text-rendering:auto;enable-background:accumulate"
         inkscape:connector-curvature="0" />
    </g>
  </g>
  <g
     inkscape:groupmode="layer"
     id="layer6"
     inkscape:label="trabajo_temporal_text">
    <flowRoot
       xml:space="preserve"
       id="flowRoot5551"
       style="font-style:normal;font-weight:normal;font-size:40px;line-height:125%;font-family:sans-serif;letter-spacing:0px;word-spacing:0px;display:inline;opacity:1;fill:#c70c46;fill-opacity:1;stroke:none;stroke-width:1px;stroke-linecap:butt;stroke-linejoin:miter;stroke-opacity:1;"
       transform="matrix(1.3572861,0,0,1.3363315,89.1093,-201.91768)"><flowRegion
         id="flowRegion5553"><rect
           id="rect5555"
           width="455"
           height="99"
           x="496"
           y="477"
           style="fill:#c70c46;fill-opacity:1;" /></flowRegion><flowPara
         id="flowPara5557">trabajo temporal</flowPara></flowRoot>  </g>
  <g
     inkscape:groupmode="layer"
     id="layer5"
     inkscape:label="ananda_text">
    <g
       transform="translate(-0.61904,1.0655774)"
       style="display:inline;opacity:1;stroke:none;fill:#3cb046;fill-opacity:1"
       id="g5560">
      <path
         sodipodi:nodetypes="csccssccccccssc"
         inkscape:connector-curvature="0"
         id="path5478"
         d="m 482.19674,337.80908 c -0.20433,-16.42246 4.62378,-26.16648 -27.95343,-30.84517 -13.63917,-1.95884 -31.85416,4.63288 -35.90571,20.48312 -9.45663,-1.37507 -21.15016,-2.25816 -26.74854,-3.61467 4.62787,-22.70294 27.09736,-36.38893 62.89522,-36.14668 26.79513,0.18133 57.45487,5.50377 58.31665,32.05006 0.92674,28.54733 0.56431,48.65197 -0.24098,97.35506 -10.11413,0.21618 -22.19934,-0.24334 -30.60419,0 0.52654,-22.66413 0.38675,-44.81364 0.24098,-64.34109 -21.73525,-1.31944 -62.48007,2.56881 -62.65425,25.0617 -0.11933,15.40978 14.56887,27.12575 42.65309,17.83236 2.33351,4.09278 6.98836,12.04889 6.98836,12.04889 0,0 -25.3831,18.33886 -51.56927,9.8801 -17.26614,-5.57737 -32.09841,-18.5672 -30.36322,-36.62864 4.25494,-44.28911 64.2706,-44.16857 94.94529,-43.13504 z"
         style="fill:#3cb046;fill-opacity:1;fill-rule:evenodd;stroke:none;stroke-width:1px;stroke-linecap:butt;stroke-linejoin:miter;stroke-opacity:1" />
      <path
         sodipodi:nodetypes="csccssccccccssc"
         inkscape:connector-curvature="0"
         id="path5478-0"
         d="m 762.85157,337.05749 c -0.20433,-16.42246 4.62378,-26.16648 -27.95343,-30.84517 -13.63917,-1.95884 -31.85416,4.63288 -35.90571,20.48312 -9.45663,-1.37507 -21.15016,-2.25816 -26.74854,-3.61467 4.62787,-22.70294 27.09736,-36.38893 62.89522,-36.14668 26.79513,0.18133 57.45486,5.50377 58.31664,32.05006 0.92674,28.54733 0.56431,48.65197 -0.24098,97.35506 -10.11413,0.21618 -22.19934,-0.24334 -30.60418,0 0.52654,-22.66413 0.38675,-44.81364 0.24098,-64.34109 -21.73525,-1.31944 -62.48007,2.56881 -62.65425,25.0617 -0.11933,15.40978 14.56887,27.12575 42.65309,17.83236 2.33351,4.09278 6.98836,12.04889 6.98836,12.04889 0,0 -25.3831,18.33886 -51.56927,9.8801 -17.26614,-5.57737 -32.09841,-18.5672 -30.36322,-36.62864 4.25494,-44.28911 64.2706,-44.16857 94.94529,-43.13504 z"
         style="display:inline;opacity:1;fill:#3cb046;fill-opacity:1;fill-rule:evenodd;stroke:none;stroke-width:1px;stroke-linecap:butt;stroke-linejoin:miter;stroke-opacity:1" />
      <path
         sodipodi:nodetypes="csccssccccccssc"
         inkscape:connector-curvature="0"
         id="path5478-6"
         d="m 1186.9726,337.78043 c -0.2043,-16.42246 4.6238,-26.16648 -27.9534,-30.84517 -13.6392,-1.95884 -31.8542,4.63288 -35.9057,20.48312 -9.4567,-1.37507 -21.1502,-2.25816 -26.7486,-3.61467 4.6279,-22.70294 27.0974,-36.38893 62.8953,-36.14668 26.7951,0.18133 57.4548,5.50377 58.3166,32.05006 0.9268,28.54733 0.5643,48.65197 -0.241,97.35506 -10.1141,0.21618 -22.1993,-0.24334 -30.6041,0 0.5265,-22.66413 0.3867,-44.81364 0.2409,-64.34109 -21.7352,-1.31944 -62.48,2.56881 -62.6542,25.0617 -0.1193,15.40978 14.5689,27.12575 42.6531,17.83236 2.3335,4.09278 6.9883,12.04889 6.9883,12.04889 0,0 -25.3831,18.33886 -51.5693,9.8801 -17.2661,-5.57737 -32.0984,-18.5672 -30.3632,-36.62864 4.255,-44.28911 64.2706,-44.16857 94.9453,-43.13504 z"
         style="display:inline;opacity:1;fill:#3cb046;fill-opacity:1;fill-rule:evenodd;stroke:none;stroke-width:1px;stroke-linecap:butt;stroke-linejoin:miter;stroke-opacity:1" />
      <path
         sodipodi:nodetypes="ccccssccssccc"
         inkscape:connector-curvature="0"
         id="path5532"
         d="m 534.72992,417.0908 1.44587,-126.27241 28.19441,-0.48195 c 0,0 -0.35503,15.60642 0,28.19441 7.00652,-10.35882 19.58347,-32.18847 46.02677,-31.32712 20.21261,0.65839 44.27708,9.899 43.617,42.17112 -0.59157,28.92275 -0.96391,86.99302 -0.96391,86.99302 l -32.05006,0 c 0,0 0.51746,-57.46338 0.96391,-84.58324 0.2512,-15.25945 -17.13566,-20.59476 -28.43539,-19.03725 -26.33896,3.63046 -26.74854,35.18277 -26.74854,35.18277 l -0.48196,69.16065 z"
         style="fill:#3cb046;fill-opacity:1;fill-rule:evenodd;stroke:none;stroke-width:1px;stroke-linecap:butt;stroke-linejoin:miter;stroke-opacity:1" />
      <path
         sodipodi:nodetypes="ccccssccssccc"
         inkscape:connector-curvature="0"
         id="path5532-1"
         d="m 818.23375,417.70563 1.44587,-126.27241 28.19441,-0.48195 c 0,0 -0.35503,15.60642 0,28.19441 7.00652,-10.35882 19.58347,-32.18847 46.02677,-31.32712 20.21261,0.65839 44.27708,9.899 43.617,42.17112 -0.59157,28.92275 -0.96391,86.99302 -0.96391,86.99302 l -32.05006,0 c 0,0 0.51746,-57.46338 0.96391,-84.58324 0.2512,-15.25945 -17.13566,-20.59476 -28.43539,-19.03725 -26.33896,3.63046 -26.74854,35.18277 -26.74854,35.18277 l -0.48196,69.16065 z"
         style="display:inline;opacity:1;fill:#3cb046;fill-opacity:1;fill-rule:evenodd;stroke:none;stroke-width:1px;stroke-linecap:butt;stroke-linejoin:miter;stroke-opacity:1" />
      <path
         sodipodi:nodetypes="ccccssccssccc"
         inkscape:connector-curvature="0"
         id="path5549"
         d="m 1081.7497,243.34575 -4.3376,174.22701 -31.0861,0 2.1688,-80.48661 c 0,0 -3.3201,-33.54712 -33.496,-28.43539 -21.6227,3.66283 -30.7031,26.13221 -29.39927,43.61699 1.45856,19.55988 1.87403,52.76169 39.76137,43.37602 3.3954,4.3303 8.9161,14.2177 8.9161,14.2177 -50.7837,32.76513 -85.24282,-16.50323 -81.93241,-59.76252 2.64227,-34.52828 22.13968,-64.10664 59.52151,-66.99185 21.7403,-1.67796 36.6287,22.16997 36.6287,22.16997 l 1.6868,-61.93132 z"
         style="fill:#3cb046;fill-opacity:1;fill-rule:evenodd;stroke:none;stroke-width:1px;stroke-linecap:butt;stroke-linejoin:miter;stroke-opacity:1" />
    </g>
  </g>
  <g
     inkscape:groupmode="layer"
     id="layer4"
     inkscape:label="man shadow"
     style="display:inline">
    <g
       id="g5434"
       style="fill:#edb5c6;fill-opacity:1;stroke:none;stroke-opacity:1">
      <path
         sodipodi:nodetypes="sssssssssssssssssss"
         inkscape:connector-curvature="0"
         id="path5430"
         d="m 292.84593,439.95608 c -4.47503,-5.65789 -96.32187,-29.05853 -128.28679,-41.60653 -4.38601,-1.72175 -12.49486,-3.59119 -13.06871,-8.26796 -0.4977,-4.05621 3.36716,-4.23542 8.26796,-7.73454 1.94817,-1.39097 8.24282,-3.32962 5.06746,-6.40101 -2.901,-2.80602 -8.26155,0.0839 -12.00188,1.60025 -12.25027,4.9665 -21.32722,6.11913 -31.73831,6.1343 -18.88278,0.0275 -37.745395,-1.66714 -56.542204,-3.46721 -8.210779,-0.7863 -23.995125,-5.10588 -24.537182,-3.2005 -1.179083,4.14459 12.755335,5.52848 19.46972,7.20112 14.985168,3.733 45.130966,4.16941 57.342326,8.53468 9.55265,3.41484 15.46319,13.14329 22.93693,20.00313 10.65355,9.77846 19.8586,23.368 31.2049,30.13806 2.29671,1.37039 6.70529,0.33484 7.73454,-2.13366 2.23648,-5.36384 -5.25981,-10.40157 -8.53467,-15.20239 -3.56018,-5.21909 -9.36869,-10.10125 -12.00188,-14.66897 -1.33055,-2.30807 4.53703,-3.45659 7.20113,-3.46721 19.32006,-0.077 91.20712,28.93066 114.41794,33.33857 4.28776,0.81428 15.77618,2.62297 13.06872,-0.80013 z"
         style="fill:#edb5c6;fill-opacity:1;fill-rule:evenodd;stroke:none;stroke-width:1px;stroke-linecap:butt;stroke-linejoin:miter;stroke-opacity:1" />
      <path
         sodipodi:nodetypes="sssss"
         inkscape:connector-curvature="0"
         id="path5432"
         d="m 90.407659,373.52393 c 1.413232,-1.80119 15.006901,0.0356 20.548041,2.16037 2.40164,0.92092 6.36303,2.68044 4.42568,4.59242 -1.1195,1.10485 -17.538097,-0.71955 -20.433156,-2.19701 -1.779503,-0.90815 -5.773802,-2.984 -4.540565,-4.55578 z"
         style="fill:#edb5c6;fill-opacity:1;fill-rule:evenodd;stroke:none;stroke-width:1px;stroke-linecap:butt;stroke-linejoin:miter;stroke-opacity:1" />
    </g>
  </g>
  <g
     inkscape:groupmode="layer"
     id="layer3"
     inkscape:label="man"
     style="display:inline">
    <g
       transform="translate(0.35936195,-0.41745397)"
       style="display:inline;opacity:1"
       id="g5403">
      <g
         id="g5637"
         style="fill:#c70c46;stroke:none;fill-opacity:1">
        <circle
           style="fill:#c70c46;fill-opacity:1;stroke:none;stroke-width:6;stroke-miterlimit:4;stroke-dasharray:none;stroke-opacity:1"
           id="path5397"
           cx="236.88077"
           cy="250.71333"
           r="13.081475" />
        <path
           style="fill:#c70c46;fill-opacity:1;fill-rule:evenodd;stroke:none;stroke-width:1px;stroke-linecap:butt;stroke-linejoin:miter;stroke-opacity:1"
           d="m 152.02385,249.25951 c 2.93791,-1.51747 34.93178,23.28186 83.74646,24.53718 35.26077,0.90677 67.4776,-19.16583 78.94571,-29.33794 2.30587,-2.04529 6.1992,4.86759 5.06747,7.73455 -4.76355,12.06726 -38.18571,26.99391 -48.54095,37.07248 -9.4498,9.19733 -13.2144,24.15327 -13.06872,37.33919 0.19301,17.46941 12.20584,32.73991 18.40289,49.07436 3.1143,11.42953 27.56697,59.92842 18.40289,65.07688 -10.24493,4.49297 -21.64855,-42.96199 -53.07499,-85.34672 -5.67148,-6.16118 -8.74609,-5.7463 -12.80201,-1.33355 -17.01031,25.76473 -27.51995,54.55049 -42.94007,78.94572 -3.14373,4.9127 -9.25316,14.23389 -13.86884,10.66834 -4.63648,-3.58162 2.28189,-18.85118 3.46721,-22.40351 16.69722,-52.18817 42.3308,-96.38391 35.73894,-116.81833 -4.33533,-11.64966 -16.45393,-17.88726 -28.53781,-24.00376 -11.32977,-5.73479 -29.6358,-18.21428 -32.53844,-23.20364 -1.85945,-3.19622 -1.68513,-6.30431 1.60026,-8.00125 z"
           id="path5399"
           inkscape:connector-curvature="0"
           sodipodi:nodetypes="sssssscccccsccsss" />
      </g>
    </g>
  </g>
</svg>
